<?xml version="1.0" encoding="UTF-8"?>
<svg id="Layer_2" data-name="Layer 2" xmlns="http://www.w3.org/2000/svg" viewBox="0 0 257.24 244.53">
  <defs>
    <style>
      .cls-1 {
        fill: #231f20;
      }
    </style>
  </defs>
  <g id="Tail_v2" data-name="Tail v2">
    <path class="cls-1" d="m58.2,108.59c.5.04.64-.67.17-.85-2.95-1.11-17.39-4.25-30.12.97-11.6,4.76-17.84,13.99-19.94,17.19-14.58,22.2-5.83,49.52-4.44,53.83,8.51,26.57,35.75,58.2,63.11,52.44,15.92-3.35,31.95-19.39,31.74-36.91-.2-16.82-15.35-32.39-29.39-36.59-6.3-1.88-11.42-1.19-18.2-5.98-2.23-1.58-8.86-6.73-11.55-16.08-.38-1.33-3.33-14.25,2.17-21,3.99-4.91,10.17-7.48,16.44-7.04Z"/>
    <path class="cls-1" d="m81.66,116.75c-1.29-.49-2.34,1.13-1.37,2.11,15.03,15.08,23.73,29.78,28.69,39.77,5.69,11.46,11.21,22.61,11.78,38.17.62,16.97-4.98,30.74-9.69,39.35-1.5,2.74.14,6.14,3.21,6.66,6.21,1.04,13.44,1.78,21.49,1.73,12.88-.08,23.82-2.16,32.14-4.43,1.7-.47,3.02-1.8,3.48-3.51,2.38-8.76,4.69-22.1,2.48-37.94-3.55-25.46-16.77-42.99-24.48-51.48-1.76-1.94-4.36-2.9-6.95-2.56-3.25.43-7.2.53-11.51-.31-10.09-1.96-16.14-7.87-22.33-12.67-5.97-4.63-14.66-10.22-26.93-14.87Z"/>
    <path class="cls-1" d="m161.87,138.43c-.87.4-.81,1.67.11,1.96,7.12,2.24,20.91,7.98,31.11,21.9,10.38,14.17,11.4,29.1,11.78,36,.45,8.17-.56,14.98-1.57,19.67.03.55.18,1.71.94,2.09.42.21,1.14.31,2.23-.47,6.23-4.51,13.4-10.62,20.37-18.73,4.61-5.36,8.29-10.61,11.22-15.38.95-1.56,1.26-3.42.85-5.2-1.6-7.06-5.57-19.19-15.91-30.22-14.95-15.96-33.71-19.47-41.86-20.31-1.82-.19-3.63.27-5.17,1.25-.98.63-1.59.92-2.62,1.67-.99.72-3.95,2.31-11.49,5.77Z"/>
    <path class="cls-1" d="m192.96,116.37c-.66.74.03,1.87.99,1.63,8.14-2.1,28.64-5.46,44.53,8.13,8.14,6.96,11.81,15.57,13.48,21.18.29.98,1.69.93,1.93-.06,1.01-4.23,1.89-8.92,2.5-14.05.97-8.18,1-15.55.63-21.81-.09-1.46-.7-2.82-1.71-3.87-3.26-3.39-9-8.26-17.44-10.93-15.19-4.79-28.37.96-32.97,3.35-.83.43-1.49,1.11-1.92,1.94-.95,1.83-2.05,3.74-3.32,5.71-2.19,3.39-4.49,6.3-6.69,8.77Z"/>
    <path class="cls-1" d="m210,81.59c1.52-.94,16.35-9.86,28.65-4.21,1.88.86,5.58,2.93,9.05,6.52,5.13,5.32,6.68,10.8,7.21,10.6.64-.24-1.28-8.41-5.33-19.15-3.88-10.26-7.62-19.92-15.86-29.79-4.09-4.9-11.72-14.04-16.4-12.2-3.88,1.52-4.37,10.05-5.01,21.24-.33,5.73.02,8.52-.67,15.63-.47,4.82-1.13,8.75-1.63,11.35Z"/>
  </g>
  <g id="Face">
    <g id="Whisker">
      <path class="cls-1" d="m64.54,51.83c1.22.1,2.59-.54,3.17-1.59.96-1.74-.54-4.02-1.06-4.82-1.9-2.88-5.37-4.32-8.52-4.31-2,0-4.88.6-5.02,1.68-.15,1.16,3.09,1.31,6.57,4.61,2.48,2.35,2.94,4.27,4.86,4.43Z"/>
      <path class="cls-1" d="m61.03,53.96c-2.49.39-4.88,2.11-4.66,2.99.19.76,2.12.11,4.85,1.3,3.14,1.37,3.61,3.54,5.5,3.35,1.26-.13,2.52-1.24,2.67-2.44.14-1.15-.77-2.08-1.44-2.76-.33-.34-3.1-3.05-6.91-2.45Z"/>
      <path class="cls-1" d="m205.15,41.13c-3.15-.08-6.65,1.29-8.61,4.13-.54.79-2.09,3.04-1.16,4.79.56,1.06,1.91,1.73,3.14,1.66,1.93-.12,2.42-2.02,4.95-4.33,3.55-3.23,6.79-3.31,6.66-4.48-.12-1.08-2.99-1.73-4.98-1.78Z"/>
      <path class="cls-1" d="m204.53,53.96c-3.81-.61-6.58,2.1-6.92,2.44-.67.68-1.59,1.6-1.45,2.75.15,1.2,1.4,2.32,2.66,2.44,1.89.19,2.37-1.98,5.51-3.34,2.73-1.18,4.66-.53,4.85-1.29.22-.88-2.17-2.6-4.66-3Z"/>
    </g>
    <path id="Face_V2" data-name="Face V2" class="cls-1" d="m197.83,63.54c-3.09-1.46-10.31,6.17-18.1,7.29-1.5.22-2.97.25-2.97.25-3.58-.02-6.26-1.36-18.45-2.08-8.18-.49-12.28-.57-15.92,1.25-6.05,3.02-6.08,8.16-9.94,8.25-3.95.09-4.18-5.28-10.73-8.45-4.36-2.11-8.76-1.96-15.91-1.61-11.34.55-14.16,2.64-18.34,2.75-.12,0-1.75-.02-3.57-.35-8.65-1.55-13.91-8.51-16.78-7.35-4.1,1.66-4.9,20.23,4.83,31.85,5.25,6.27,13.89,10.88,17.67,12.89,3.98,2.12,4.9,2.17,8.44,4,4.93,2.55,11.67,6.85,18.81,14.45,1.57,2.04,4.53,5.24,9.19,7.11,1.41.57,3.58,1.41,6.5,1.33.86-.02,3.54-.1,6.83-1.88,3.36-1.82,4.71-3.71,7.89-7,7.11-7.35,13.39-11.31,14.77-12.17,2.12-1.31,3.83-2.19,5.82-3.22,6.53-3.36,9.82-4.23,12.64-5.62,6.63-3.26,10.06-9.1,12.67-13.33,7.2-11.71,8.31-26.62,4.66-28.35Zm-78.1,62.31c-3.11-3.51-7.35-7.62-12.92-11.48-3.37-2.33-6.62-4.15-9.54-5.56,4.98-2.86,9.4-3.54,11.96-3.72,2.55-.18,13.45-.95,18.92,6.54,2.34,3.2,2.8,6.71,2.89,8.74l-11.3,5.49Zm37.66-11.63c-5.59,3.9-9.83,8.06-12.94,11.62-3.51-1.8-7.02-3.6-10.53-5.39-.06-1.97.15-5.12,2-8.11,4.49-7.26,14.73-7.25,17.46-7.25,5.81,0,10.46,1.95,13.41,3.58-2.89,1.42-6.09,3.24-9.41,5.56Z"/>
    <g id="Ears_FULL_" data-name="Ears (FULL)">
      <path class="cls-1" d="m195.95,13.97c.29-8.16,4.15-11.3,2.35-13.18-2.73-2.86-13.11,2.77-20.13,6.58-7.25,3.93-13.09,7.96-17.45,11.28-.65.5-.47,1.51.31,1.76,3.2,1.03,6.96,2.46,11.04,4.44,3.87,1.88,6.97,3.38,10.51,6.06,7.51,5.68,9.26,10.77,11.92,10.11,2.49-.61,3.24-5.62,3.59-7.94,1.25-8.26-2.45-10.95-2.16-19.11Z"/>
      <path class="cls-1" d="m87.2,7.4c-7.03-3.79-17.42-9.4-20.14-6.53-1.8,1.89,2.07,5.02,2.38,13.18.31,8.16-3.38,10.85-2.11,19.11.36,2.32,1.12,7.33,3.61,7.93,2.67.65,4.4-4.45,11.9-10.14,3.54-2.68,6.63-4.2,10.5-6.08,4.09-2,7.86-3.43,11.06-4.48.77-.25.94-1.25.3-1.74-4.37-3.31-10.22-7.33-17.5-11.26Z"/>
    </g>
    <path id="Peak" class="cls-1" d="m132.84,20.87c13.56.11,24.4,3.57,31.35,6.51.87.37.66,1.67-.28,1.74-5.93.45-16.98,2.6-24.62,12.08-3.34,4.14-5.07,8.49-5.97,11.99-.24.91-1.52.9-1.75,0-.88-3.49-2.55-7.82-5.81-11.98-7.5-9.57-18.47-11.94-24.36-12.5-.95-.09-1.15-1.39-.27-1.74,7.02-2.86,18.02-6.2,31.72-6.09Z"/>
  </g>
</svg>