<?xml version="1.0" encoding="UTF-8"?>
<svg id="Layer_2" data-name="Layer 2" xmlns="http://www.w3.org/2000/svg" viewBox="0 0 257.24 211.4">
  <defs>
    <style>
      .cls-1 {
        fill: #fff;
      }

      .cls-2 {
        fill: #d6d6d6;
      }
    </style>
  </defs>
  <g id="Tail_v2" data-name="Tail v2">
    <path class="cls-1" d="m58.2,75.46c.5.04.64-.67.17-.85-2.95-1.11-17.39-4.25-30.12.97-11.6,4.76-17.84,13.99-19.94,17.19-14.58,22.2-5.83,49.52-4.44,53.83,8.51,26.57,35.75,58.2,63.11,52.44,15.92-3.35,31.95-19.39,31.74-36.91-.2-16.82-15.35-32.39-29.39-36.59-6.3-1.88-11.42-1.19-18.2-5.98-2.23-1.58-8.86-6.73-11.55-16.08-.38-1.33-3.33-14.25,2.17-21,3.99-4.91,10.17-7.48,16.44-7.04Z"/>
    <path class="cls-1" d="m81.66,83.63c-1.29-.49-2.34,1.13-1.37,2.11,15.03,15.08,23.73,29.78,28.69,39.77,5.69,11.46,11.21,22.61,11.78,38.17.62,16.97-4.98,30.74-9.69,39.35-1.5,2.74.14,6.14,3.21,6.66,6.21,1.04,13.44,1.78,21.49,1.73,12.88-.08,23.82-2.16,32.14-4.43,1.7-.47,3.02-1.8,3.48-3.51,2.38-8.76,4.69-22.1,2.48-37.94-3.55-25.46-16.77-42.99-24.48-51.48-1.76-1.94-4.36-2.9-6.95-2.56-3.25.43-7.2.53-11.51-.31-10.09-1.96-16.14-7.87-22.33-12.67-5.97-4.63-14.66-10.22-26.93-14.87Z"/>
    <path class="cls-1" d="m161.87,105.3c-.87.4-.81,1.67.11,1.96,7.12,2.24,20.91,7.98,31.11,21.9,10.38,14.17,11.4,29.1,11.78,36,.45,8.17-.56,14.98-1.57,19.67.03.55.18,1.71.94,2.09.42.21,1.14.31,2.23-.47,6.23-4.51,13.4-10.62,20.37-18.73,4.61-5.36,8.29-10.61,11.22-15.38.95-1.56,1.26-3.42.85-5.2-1.6-7.06-5.57-19.19-15.91-30.22-14.95-15.96-33.71-19.47-41.86-20.31-1.82-.19-3.63.27-5.17,1.25-.98.63-1.59.92-2.62,1.67-.99.72-3.95,2.31-11.49,5.77Z"/>
    <path class="cls-1" d="m192.96,83.25c-.66.74.03,1.87.99,1.63,8.14-2.1,28.64-5.46,44.53,8.13,8.14,6.96,11.81,15.57,13.48,21.18.29.98,1.69.93,1.93-.06,1.01-4.23,1.89-8.92,2.5-14.05.97-8.18,1-15.55.63-21.81-.09-1.46-.7-2.82-1.71-3.87-3.26-3.39-9-8.26-17.44-10.93-15.19-4.79-28.37.96-32.97,3.35-.83.43-1.49,1.11-1.92,1.94-.95,1.83-2.05,3.74-3.32,5.71-2.19,3.39-4.49,6.3-6.69,8.77Z"/>
    <path class="cls-1" d="m210,48.47c1.52-.94,16.35-9.86,28.65-4.21,1.88.86,5.58,2.93,9.05,6.52,5.13,5.32,6.68,10.8,7.21,10.6.64-.24-1.28-8.41-5.33-19.15-3.88-10.26-7.62-19.92-15.86-29.79-4.09-4.9-11.72-14.04-16.4-12.2-3.88,1.52-4.37,10.05-5.01,21.24-.33,5.73.02,8.52-.67,15.63-.47,4.82-1.13,8.75-1.63,11.35Z"/>
  </g>
  <g id="Shade">
    <g>
      <path class="cls-2" d="m66.98,199.05c15.92-3.35,31.95-19.39,31.74-36.91,0,0,0,0,0,0-24.24,12.41-45.48,23.3-60.01,30.78,8.85,5.48,18.55,8.17,28.26,6.12Z"/>
      <path class="cls-2" d="m111.06,203.01c-1.5,2.74.14,6.14,3.21,6.66,6.21,1.04,13.44,1.78,21.49,1.73,12.88-.08,23.82-2.16,32.14-4.43,1.7-.47,3.02-1.8,3.48-3.51,2.38-8.76,4.69-22.1,2.48-37.94-2.01-14.4-7.11-26.27-12.56-35.39-14.22,7.27-28.43,14.54-42.07,21.52.82,3.74,1.37,7.7,1.52,12.02.62,16.97-4.98,30.74-9.69,39.35Z"/>
      <path class="cls-2" d="m193.09,129.16c10.38,14.17,11.4,29.1,11.78,36,.45,8.17-.56,14.98-1.57,19.67.03.55.18,1.71.94,2.09.42.21,1.14.31,2.23-.47,6.23-4.51,13.4-10.62,20.37-18.73,4.61-5.36,8.29-10.61,11.22-15.38.95-1.56,1.26-3.42.85-5.2-1.6-7.06-5.57-19.19-15.91-30.22-4.45-4.75-9.23-8.38-13.97-11.19-8.37,4.27-16.97,8.67-25.67,13.12,3.38,2.81,6.71,6.19,9.73,10.31Z"/>
      <path class="cls-2" d="m251.97,114.19c.29.98,1.69.93,1.93-.06,1.01-4.23,1.89-8.92,2.5-14.05.82-6.96.97-13.33.76-18.94-6.4,3.27-13.25,6.77-20.44,10.44.6.45,1.19.92,1.77,1.42,8.14,6.96,11.81,15.57,13.48,21.18Z"/>
    </g>
  </g>
</svg>